<mxfile host="app.diagrams.net" modified="2023-05-04T19:44:18.289Z" agent="Mozilla/5.0 (Windows NT 10.0; Win64; x64) AppleWebKit/537.36 (KHTML, like Gecko) Chrome/112.0.0.0 Safari/537.36" etag="VD5ZO1gVJ6pqxolLtcME" version="21.2.6" type="device">
  <diagram name="Page-1" id="QUOM56lIjW8Knzj0Mmif">
    <mxGraphModel dx="794" dy="381" grid="1" gridSize="10" guides="1" tooltips="1" connect="1" arrows="1" fold="1" page="1" pageScale="1" pageWidth="850" pageHeight="1100" math="0" shadow="0">
      <root>
        <mxCell id="0" />
        <mxCell id="1" parent="0" />
        <mxCell id="rfMJr3Cy8R7fDRPE-xrx-1" value="Socio" style="rounded=1;whiteSpace=wrap;html=1;fillColor=#d5e8d4;strokeColor=#82b366;" vertex="1" parent="1">
          <mxGeometry x="20" y="210" width="90" height="30" as="geometry" />
        </mxCell>
        <mxCell id="rfMJr3Cy8R7fDRPE-xrx-2" value="&lt;u&gt;id_socio&lt;/u&gt;" style="ellipse;whiteSpace=wrap;html=1;" vertex="1" parent="1">
          <mxGeometry y="130" width="60" height="40" as="geometry" />
        </mxCell>
        <mxCell id="rfMJr3Cy8R7fDRPE-xrx-3" value="nombre" style="ellipse;whiteSpace=wrap;html=1;" vertex="1" parent="1">
          <mxGeometry x="35" y="70" width="50" height="40" as="geometry" />
        </mxCell>
        <mxCell id="rfMJr3Cy8R7fDRPE-xrx-4" value="dni" style="ellipse;whiteSpace=wrap;html=1;" vertex="1" parent="1">
          <mxGeometry x="120" y="90" width="50" height="40" as="geometry" />
        </mxCell>
        <mxCell id="rfMJr3Cy8R7fDRPE-xrx-5" value="apellidos" style="ellipse;whiteSpace=wrap;html=1;" vertex="1" parent="1">
          <mxGeometry x="10" y="260" width="50" height="40" as="geometry" />
        </mxCell>
        <mxCell id="rfMJr3Cy8R7fDRPE-xrx-6" value="avalador" style="ellipse;whiteSpace=wrap;html=1;fillColor=#dae8fc;strokeColor=#6c8ebf;" vertex="1" parent="1">
          <mxGeometry x="170" y="80" width="70" height="40" as="geometry" />
        </mxCell>
        <mxCell id="rfMJr3Cy8R7fDRPE-xrx-7" value="hace" style="rhombus;whiteSpace=wrap;html=1;" vertex="1" parent="1">
          <mxGeometry x="190" y="195" width="60" height="60" as="geometry" />
        </mxCell>
        <mxCell id="rfMJr3Cy8R7fDRPE-xrx-8" value="Pedidos" style="rounded=1;whiteSpace=wrap;html=1;fillColor=#d5e8d4;strokeColor=#82b366;" vertex="1" parent="1">
          <mxGeometry x="320" y="210" width="90" height="30" as="geometry" />
        </mxCell>
        <mxCell id="rfMJr3Cy8R7fDRPE-xrx-9" value="&lt;u&gt;id_socio&lt;/u&gt;" style="ellipse;whiteSpace=wrap;html=1;fillColor=#dae8fc;strokeColor=#6c8ebf;" vertex="1" parent="1">
          <mxGeometry x="290" y="80" width="60" height="40" as="geometry" />
        </mxCell>
        <mxCell id="rfMJr3Cy8R7fDRPE-xrx-10" value="cantidad" style="ellipse;whiteSpace=wrap;html=1;" vertex="1" parent="1">
          <mxGeometry x="360" y="80" width="50" height="40" as="geometry" />
        </mxCell>
        <mxCell id="rfMJr3Cy8R7fDRPE-xrx-11" value="forma_pago" style="ellipse;whiteSpace=wrap;html=1;" vertex="1" parent="1">
          <mxGeometry x="425" y="80" width="75" height="40" as="geometry" />
        </mxCell>
        <mxCell id="rfMJr3Cy8R7fDRPE-xrx-12" value="forma_envio" style="ellipse;whiteSpace=wrap;html=1;" vertex="1" parent="1">
          <mxGeometry x="250" y="130" width="75" height="40" as="geometry" />
        </mxCell>
        <mxCell id="rfMJr3Cy8R7fDRPE-xrx-13" value="tienen" style="rhombus;whiteSpace=wrap;html=1;" vertex="1" parent="1">
          <mxGeometry x="490" y="195" width="60" height="60" as="geometry" />
        </mxCell>
        <mxCell id="rfMJr3Cy8R7fDRPE-xrx-14" value="Detalles_pedido" style="rounded=1;whiteSpace=wrap;html=1;fillColor=#d5e8d4;strokeColor=#82b366;" vertex="1" parent="1">
          <mxGeometry x="630" y="210" width="90" height="30" as="geometry" />
        </mxCell>
        <mxCell id="rfMJr3Cy8R7fDRPE-xrx-15" value="&lt;u&gt;isbn&lt;/u&gt;" style="ellipse;whiteSpace=wrap;html=1;fillColor=#dae8fc;strokeColor=#6c8ebf;" vertex="1" parent="1">
          <mxGeometry x="570" y="80" width="60" height="40" as="geometry" />
        </mxCell>
        <mxCell id="rfMJr3Cy8R7fDRPE-xrx-16" value="&lt;u&gt;id_pedido&lt;/u&gt;" style="ellipse;whiteSpace=wrap;html=1;fillColor=#dae8fc;strokeColor=#6c8ebf;" vertex="1" parent="1">
          <mxGeometry x="640" y="80" width="60" height="40" as="geometry" />
        </mxCell>
        <mxCell id="rfMJr3Cy8R7fDRPE-xrx-17" value="&lt;u&gt;id_detalles_pedido&lt;/u&gt;" style="ellipse;whiteSpace=wrap;html=1;" vertex="1" parent="1">
          <mxGeometry x="710" y="80" width="120" height="40" as="geometry" />
        </mxCell>
        <mxCell id="rfMJr3Cy8R7fDRPE-xrx-18" value="cantidad" style="ellipse;whiteSpace=wrap;html=1;" vertex="1" parent="1">
          <mxGeometry x="760" y="140" width="50" height="40" as="geometry" />
        </mxCell>
        <mxCell id="rfMJr3Cy8R7fDRPE-xrx-19" value="contienen" style="rhombus;whiteSpace=wrap;html=1;" vertex="1" parent="1">
          <mxGeometry x="650" y="290" width="70" height="70" as="geometry" />
        </mxCell>
        <mxCell id="rfMJr3Cy8R7fDRPE-xrx-20" value="Libros" style="rounded=1;whiteSpace=wrap;html=1;fillColor=#d5e8d4;strokeColor=#82b366;" vertex="1" parent="1">
          <mxGeometry x="635" y="430" width="90" height="30" as="geometry" />
        </mxCell>
        <mxCell id="rfMJr3Cy8R7fDRPE-xrx-21" value="isbn" style="ellipse;whiteSpace=wrap;html=1;" vertex="1" parent="1">
          <mxGeometry x="725" y="380" width="60" height="30" as="geometry" />
        </mxCell>
        <mxCell id="rfMJr3Cy8R7fDRPE-xrx-22" value="titulo" style="ellipse;whiteSpace=wrap;html=1;" vertex="1" parent="1">
          <mxGeometry x="590" y="380" width="60" height="30" as="geometry" />
        </mxCell>
        <mxCell id="rfMJr3Cy8R7fDRPE-xrx-23" value="&lt;u&gt;id_libro&lt;/u&gt;" style="ellipse;whiteSpace=wrap;html=1;" vertex="1" parent="1">
          <mxGeometry x="790" y="380" width="60" height="30" as="geometry" />
        </mxCell>
        <mxCell id="rfMJr3Cy8R7fDRPE-xrx-24" value="id_coleccion" style="ellipse;whiteSpace=wrap;html=1;fillColor=#dae8fc;strokeColor=#6c8ebf;" vertex="1" parent="1">
          <mxGeometry x="770" y="420" width="80" height="30" as="geometry" />
        </mxCell>
        <mxCell id="rfMJr3Cy8R7fDRPE-xrx-25" value="editorial" style="ellipse;whiteSpace=wrap;html=1;" vertex="1" parent="1">
          <mxGeometry x="780" y="470" width="60" height="30" as="geometry" />
        </mxCell>
        <mxCell id="rfMJr3Cy8R7fDRPE-xrx-26" value="autor" style="ellipse;whiteSpace=wrap;html=1;" vertex="1" parent="1">
          <mxGeometry x="575" y="480" width="60" height="30" as="geometry" />
        </mxCell>
        <mxCell id="rfMJr3Cy8R7fDRPE-xrx-27" value="fienen" style="rhombus;whiteSpace=wrap;html=1;" vertex="1" parent="1">
          <mxGeometry x="490" y="412.5" width="60" height="65" as="geometry" />
        </mxCell>
        <mxCell id="rfMJr3Cy8R7fDRPE-xrx-28" value="Colecciones" style="rounded=1;whiteSpace=wrap;html=1;fillColor=#d5e8d4;strokeColor=#82b366;" vertex="1" parent="1">
          <mxGeometry x="340" y="430" width="90" height="30" as="geometry" />
        </mxCell>
        <mxCell id="rfMJr3Cy8R7fDRPE-xrx-29" value="&lt;u&gt;id_coleccion&lt;/u&gt;" style="ellipse;whiteSpace=wrap;html=1;" vertex="1" parent="1">
          <mxGeometry x="280" y="382.5" width="80" height="30" as="geometry" />
        </mxCell>
        <mxCell id="rfMJr3Cy8R7fDRPE-xrx-30" value="volumenes" style="ellipse;whiteSpace=wrap;html=1;" vertex="1" parent="1">
          <mxGeometry x="280" y="477.5" width="70" height="42.5" as="geometry" />
        </mxCell>
        <mxCell id="rfMJr3Cy8R7fDRPE-xrx-31" value="guardados en" style="rhombus;whiteSpace=wrap;html=1;" vertex="1" parent="1">
          <mxGeometry x="635" y="540" width="90" height="90" as="geometry" />
        </mxCell>
        <mxCell id="rfMJr3Cy8R7fDRPE-xrx-32" value="Almacenes" style="rounded=1;whiteSpace=wrap;html=1;fillColor=#d5e8d4;strokeColor=#82b366;" vertex="1" parent="1">
          <mxGeometry x="635" y="680" width="90" height="30" as="geometry" />
        </mxCell>
        <mxCell id="rfMJr3Cy8R7fDRPE-xrx-33" value="id_provincia" style="ellipse;whiteSpace=wrap;html=1;fillColor=#dae8fc;strokeColor=#6c8ebf;" vertex="1" parent="1">
          <mxGeometry x="770" y="680" width="80" height="30" as="geometry" />
        </mxCell>
        <mxCell id="rfMJr3Cy8R7fDRPE-xrx-34" value="&lt;u&gt;id_almacen&lt;/u&gt;" style="ellipse;whiteSpace=wrap;html=1;" vertex="1" parent="1">
          <mxGeometry x="760" y="730" width="80" height="30" as="geometry" />
        </mxCell>
        <mxCell id="rfMJr3Cy8R7fDRPE-xrx-35" value="dirección" style="ellipse;whiteSpace=wrap;html=1;" vertex="1" parent="1">
          <mxGeometry x="665" y="740" width="60" height="30" as="geometry" />
        </mxCell>
        <mxCell id="rfMJr3Cy8R7fDRPE-xrx-36" value="fecha" style="ellipse;whiteSpace=wrap;html=1;" vertex="1" parent="1">
          <mxGeometry x="580" y="740" width="60" height="30" as="geometry" />
        </mxCell>
        <mxCell id="rfMJr3Cy8R7fDRPE-xrx-37" value="Provincias" style="rounded=1;whiteSpace=wrap;html=1;fillColor=#d5e8d4;strokeColor=#82b366;" vertex="1" parent="1">
          <mxGeometry x="380" y="680" width="90" height="30" as="geometry" />
        </mxCell>
        <mxCell id="rfMJr3Cy8R7fDRPE-xrx-38" value="se ubican" style="rhombus;whiteSpace=wrap;html=1;" vertex="1" parent="1">
          <mxGeometry x="530" y="665" width="60" height="65" as="geometry" />
        </mxCell>
        <mxCell id="rfMJr3Cy8R7fDRPE-xrx-39" value="&lt;u&gt;id_provincia&lt;/u&gt;" style="ellipse;whiteSpace=wrap;html=1;" vertex="1" parent="1">
          <mxGeometry x="300" y="740" width="80" height="30" as="geometry" />
        </mxCell>
        <mxCell id="rfMJr3Cy8R7fDRPE-xrx-40" value="extensión" style="ellipse;whiteSpace=wrap;html=1;" vertex="1" parent="1">
          <mxGeometry x="450" y="740" width="60" height="30" as="geometry" />
        </mxCell>
        <mxCell id="rfMJr3Cy8R7fDRPE-xrx-41" value="&lt;u&gt;id_almacen&lt;/u&gt;" style="ellipse;whiteSpace=wrap;html=1;fillColor=#dae8fc;strokeColor=#6c8ebf;" vertex="1" parent="1">
          <mxGeometry x="370" y="770" width="80" height="30" as="geometry" />
        </mxCell>
        <mxCell id="rfMJr3Cy8R7fDRPE-xrx-42" value="fienen" style="rhombus;whiteSpace=wrap;html=1;" vertex="1" parent="1">
          <mxGeometry x="277.5" y="662.5" width="60" height="65" as="geometry" />
        </mxCell>
        <mxCell id="rfMJr3Cy8R7fDRPE-xrx-43" value="Población" style="rounded=1;whiteSpace=wrap;html=1;fillColor=#d5e8d4;strokeColor=#82b366;" vertex="1" parent="1">
          <mxGeometry x="130" y="682.5" width="90" height="30" as="geometry" />
        </mxCell>
        <mxCell id="rfMJr3Cy8R7fDRPE-xrx-44" value="&lt;u&gt;id_población&lt;/u&gt;" style="ellipse;whiteSpace=wrap;html=1;" vertex="1" parent="1">
          <mxGeometry x="190" y="760" width="80" height="30" as="geometry" />
        </mxCell>
        <mxCell id="rfMJr3Cy8R7fDRPE-xrx-45" value="&lt;u&gt;id_provincia&lt;/u&gt;" style="ellipse;whiteSpace=wrap;html=1;fillColor=#dae8fc;strokeColor=#6c8ebf;" vertex="1" parent="1">
          <mxGeometry x="105" y="760" width="80" height="30" as="geometry" />
        </mxCell>
        <mxCell id="rfMJr3Cy8R7fDRPE-xrx-46" value="nombre" style="ellipse;whiteSpace=wrap;html=1;" vertex="1" parent="1">
          <mxGeometry x="45" y="727.5" width="60" height="30" as="geometry" />
        </mxCell>
        <mxCell id="rfMJr3Cy8R7fDRPE-xrx-47" value="habitantes" style="ellipse;whiteSpace=wrap;html=1;" vertex="1" parent="1">
          <mxGeometry x="35" y="680" width="60" height="30" as="geometry" />
        </mxCell>
        <mxCell id="rfMJr3Cy8R7fDRPE-xrx-48" value="" style="endArrow=none;html=1;rounded=0;exitX=1;exitY=0.75;exitDx=0;exitDy=0;entryX=0;entryY=0.5;entryDx=0;entryDy=0;" edge="1" parent="1" source="rfMJr3Cy8R7fDRPE-xrx-1" target="rfMJr3Cy8R7fDRPE-xrx-7">
          <mxGeometry width="50" height="50" relative="1" as="geometry">
            <mxPoint x="180" y="250" as="sourcePoint" />
            <mxPoint x="230" y="200" as="targetPoint" />
          </mxGeometry>
        </mxCell>
        <mxCell id="rfMJr3Cy8R7fDRPE-xrx-49" value="" style="endArrow=none;html=1;rounded=0;entryX=0;entryY=0.25;entryDx=0;entryDy=0;exitX=1;exitY=0.5;exitDx=0;exitDy=0;" edge="1" parent="1" source="rfMJr3Cy8R7fDRPE-xrx-7" target="rfMJr3Cy8R7fDRPE-xrx-8">
          <mxGeometry width="50" height="50" relative="1" as="geometry">
            <mxPoint x="180" y="250" as="sourcePoint" />
            <mxPoint x="230" y="200" as="targetPoint" />
          </mxGeometry>
        </mxCell>
        <mxCell id="rfMJr3Cy8R7fDRPE-xrx-50" value="" style="endArrow=none;html=1;rounded=0;entryX=0;entryY=0.5;entryDx=0;entryDy=0;exitX=1;exitY=0.5;exitDx=0;exitDy=0;" edge="1" parent="1" source="rfMJr3Cy8R7fDRPE-xrx-8" target="rfMJr3Cy8R7fDRPE-xrx-13">
          <mxGeometry width="50" height="50" relative="1" as="geometry">
            <mxPoint x="180" y="250" as="sourcePoint" />
            <mxPoint x="230" y="200" as="targetPoint" />
          </mxGeometry>
        </mxCell>
        <mxCell id="rfMJr3Cy8R7fDRPE-xrx-51" value="" style="endArrow=none;html=1;rounded=0;entryX=0;entryY=0.5;entryDx=0;entryDy=0;exitX=1;exitY=0.5;exitDx=0;exitDy=0;" edge="1" parent="1" source="rfMJr3Cy8R7fDRPE-xrx-13" target="rfMJr3Cy8R7fDRPE-xrx-14">
          <mxGeometry width="50" height="50" relative="1" as="geometry">
            <mxPoint x="420" y="250" as="sourcePoint" />
            <mxPoint x="470" y="200" as="targetPoint" />
          </mxGeometry>
        </mxCell>
        <mxCell id="rfMJr3Cy8R7fDRPE-xrx-52" value="" style="endArrow=none;html=1;rounded=0;exitX=0.5;exitY=1;exitDx=0;exitDy=0;entryX=0.5;entryY=0;entryDx=0;entryDy=0;" edge="1" parent="1" source="rfMJr3Cy8R7fDRPE-xrx-14" target="rfMJr3Cy8R7fDRPE-xrx-19">
          <mxGeometry width="50" height="50" relative="1" as="geometry">
            <mxPoint x="420" y="250" as="sourcePoint" />
            <mxPoint x="470" y="200" as="targetPoint" />
          </mxGeometry>
        </mxCell>
        <mxCell id="rfMJr3Cy8R7fDRPE-xrx-53" value="" style="endArrow=none;html=1;rounded=0;entryX=0.5;entryY=1;entryDx=0;entryDy=0;" edge="1" parent="1" source="rfMJr3Cy8R7fDRPE-xrx-20" target="rfMJr3Cy8R7fDRPE-xrx-19">
          <mxGeometry width="50" height="50" relative="1" as="geometry">
            <mxPoint x="490" y="300" as="sourcePoint" />
            <mxPoint x="470" y="200" as="targetPoint" />
          </mxGeometry>
        </mxCell>
        <mxCell id="rfMJr3Cy8R7fDRPE-xrx-54" value="" style="endArrow=none;html=1;rounded=0;entryX=0.5;entryY=1;entryDx=0;entryDy=0;exitX=0.5;exitY=0;exitDx=0;exitDy=0;" edge="1" parent="1" source="rfMJr3Cy8R7fDRPE-xrx-31" target="rfMJr3Cy8R7fDRPE-xrx-20">
          <mxGeometry width="50" height="50" relative="1" as="geometry">
            <mxPoint x="420" y="400" as="sourcePoint" />
            <mxPoint x="470" y="350" as="targetPoint" />
          </mxGeometry>
        </mxCell>
        <mxCell id="rfMJr3Cy8R7fDRPE-xrx-55" value="" style="endArrow=none;html=1;rounded=0;entryX=0;entryY=0.25;entryDx=0;entryDy=0;exitX=1;exitY=0.5;exitDx=0;exitDy=0;" edge="1" parent="1" source="rfMJr3Cy8R7fDRPE-xrx-27" target="rfMJr3Cy8R7fDRPE-xrx-20">
          <mxGeometry width="50" height="50" relative="1" as="geometry">
            <mxPoint x="420" y="400" as="sourcePoint" />
            <mxPoint x="470" y="350" as="targetPoint" />
          </mxGeometry>
        </mxCell>
        <mxCell id="rfMJr3Cy8R7fDRPE-xrx-56" value="" style="endArrow=none;html=1;rounded=0;entryX=0;entryY=0.5;entryDx=0;entryDy=0;exitX=1;exitY=0.5;exitDx=0;exitDy=0;" edge="1" parent="1" source="rfMJr3Cy8R7fDRPE-xrx-28" target="rfMJr3Cy8R7fDRPE-xrx-27">
          <mxGeometry width="50" height="50" relative="1" as="geometry">
            <mxPoint x="420" y="400" as="sourcePoint" />
            <mxPoint x="470" y="350" as="targetPoint" />
          </mxGeometry>
        </mxCell>
        <mxCell id="rfMJr3Cy8R7fDRPE-xrx-57" value="" style="endArrow=none;html=1;rounded=0;exitX=0.5;exitY=1;exitDx=0;exitDy=0;entryX=0.25;entryY=0;entryDx=0;entryDy=0;" edge="1" parent="1" source="rfMJr3Cy8R7fDRPE-xrx-29" target="rfMJr3Cy8R7fDRPE-xrx-28">
          <mxGeometry width="50" height="50" relative="1" as="geometry">
            <mxPoint x="420" y="400" as="sourcePoint" />
            <mxPoint x="470" y="350" as="targetPoint" />
          </mxGeometry>
        </mxCell>
        <mxCell id="rfMJr3Cy8R7fDRPE-xrx-58" value="" style="endArrow=none;html=1;rounded=0;exitX=1;exitY=0;exitDx=0;exitDy=0;entryX=0.5;entryY=1;entryDx=0;entryDy=0;" edge="1" parent="1" source="rfMJr3Cy8R7fDRPE-xrx-30" target="rfMJr3Cy8R7fDRPE-xrx-28">
          <mxGeometry width="50" height="50" relative="1" as="geometry">
            <mxPoint x="420" y="400" as="sourcePoint" />
            <mxPoint x="470" y="350" as="targetPoint" />
          </mxGeometry>
        </mxCell>
        <mxCell id="rfMJr3Cy8R7fDRPE-xrx-59" value="" style="endArrow=none;html=1;rounded=0;exitX=0.419;exitY=0.011;exitDx=0;exitDy=0;exitPerimeter=0;entryX=1;entryY=1;entryDx=0;entryDy=0;" edge="1" parent="1" source="rfMJr3Cy8R7fDRPE-xrx-20" target="rfMJr3Cy8R7fDRPE-xrx-22">
          <mxGeometry width="50" height="50" relative="1" as="geometry">
            <mxPoint x="420" y="400" as="sourcePoint" />
            <mxPoint x="470" y="350" as="targetPoint" />
          </mxGeometry>
        </mxCell>
        <mxCell id="rfMJr3Cy8R7fDRPE-xrx-60" value="" style="endArrow=none;html=1;rounded=0;entryX=0.5;entryY=1;entryDx=0;entryDy=0;exitX=1;exitY=0;exitDx=0;exitDy=0;" edge="1" parent="1" source="rfMJr3Cy8R7fDRPE-xrx-20" target="rfMJr3Cy8R7fDRPE-xrx-21">
          <mxGeometry width="50" height="50" relative="1" as="geometry">
            <mxPoint x="420" y="400" as="sourcePoint" />
            <mxPoint x="470" y="350" as="targetPoint" />
          </mxGeometry>
        </mxCell>
        <mxCell id="rfMJr3Cy8R7fDRPE-xrx-61" value="" style="endArrow=none;html=1;rounded=0;entryX=0;entryY=0.5;entryDx=0;entryDy=0;exitX=1;exitY=0.5;exitDx=0;exitDy=0;" edge="1" parent="1" source="rfMJr3Cy8R7fDRPE-xrx-20" target="rfMJr3Cy8R7fDRPE-xrx-24">
          <mxGeometry width="50" height="50" relative="1" as="geometry">
            <mxPoint x="420" y="400" as="sourcePoint" />
            <mxPoint x="470" y="350" as="targetPoint" />
          </mxGeometry>
        </mxCell>
        <mxCell id="rfMJr3Cy8R7fDRPE-xrx-62" value="" style="endArrow=none;html=1;rounded=0;entryX=0;entryY=0.5;entryDx=0;entryDy=0;exitX=1;exitY=1;exitDx=0;exitDy=0;" edge="1" parent="1" source="rfMJr3Cy8R7fDRPE-xrx-20" target="rfMJr3Cy8R7fDRPE-xrx-25">
          <mxGeometry width="50" height="50" relative="1" as="geometry">
            <mxPoint x="420" y="400" as="sourcePoint" />
            <mxPoint x="470" y="350" as="targetPoint" />
          </mxGeometry>
        </mxCell>
        <mxCell id="rfMJr3Cy8R7fDRPE-xrx-63" value="" style="endArrow=none;html=1;rounded=0;entryX=0.5;entryY=1;entryDx=0;entryDy=0;exitX=0.5;exitY=0;exitDx=0;exitDy=0;" edge="1" parent="1" source="rfMJr3Cy8R7fDRPE-xrx-32" target="rfMJr3Cy8R7fDRPE-xrx-31">
          <mxGeometry width="50" height="50" relative="1" as="geometry">
            <mxPoint x="420" y="650" as="sourcePoint" />
            <mxPoint x="470" y="600" as="targetPoint" />
          </mxGeometry>
        </mxCell>
        <mxCell id="rfMJr3Cy8R7fDRPE-xrx-64" value="" style="endArrow=none;html=1;rounded=0;entryX=0;entryY=0.5;entryDx=0;entryDy=0;exitX=1;exitY=0.5;exitDx=0;exitDy=0;" edge="1" parent="1" source="rfMJr3Cy8R7fDRPE-xrx-32" target="rfMJr3Cy8R7fDRPE-xrx-33">
          <mxGeometry width="50" height="50" relative="1" as="geometry">
            <mxPoint x="420" y="650" as="sourcePoint" />
            <mxPoint x="470" y="600" as="targetPoint" />
          </mxGeometry>
        </mxCell>
        <mxCell id="rfMJr3Cy8R7fDRPE-xrx-65" value="" style="endArrow=none;html=1;rounded=0;entryX=0;entryY=0.5;entryDx=0;entryDy=0;exitX=1;exitY=0.5;exitDx=0;exitDy=0;" edge="1" parent="1" source="rfMJr3Cy8R7fDRPE-xrx-38" target="rfMJr3Cy8R7fDRPE-xrx-32">
          <mxGeometry width="50" height="50" relative="1" as="geometry">
            <mxPoint x="420" y="650" as="sourcePoint" />
            <mxPoint x="470" y="600" as="targetPoint" />
          </mxGeometry>
        </mxCell>
        <mxCell id="rfMJr3Cy8R7fDRPE-xrx-66" value="" style="endArrow=none;html=1;rounded=0;entryX=0;entryY=0.5;entryDx=0;entryDy=0;exitX=1;exitY=0.5;exitDx=0;exitDy=0;" edge="1" parent="1" source="rfMJr3Cy8R7fDRPE-xrx-37" target="rfMJr3Cy8R7fDRPE-xrx-38">
          <mxGeometry width="50" height="50" relative="1" as="geometry">
            <mxPoint x="420" y="650" as="sourcePoint" />
            <mxPoint x="470" y="600" as="targetPoint" />
          </mxGeometry>
        </mxCell>
        <mxCell id="rfMJr3Cy8R7fDRPE-xrx-67" value="" style="endArrow=none;html=1;rounded=0;entryX=0;entryY=0.5;entryDx=0;entryDy=0;exitX=1;exitY=0.5;exitDx=0;exitDy=0;" edge="1" parent="1" source="rfMJr3Cy8R7fDRPE-xrx-42" target="rfMJr3Cy8R7fDRPE-xrx-37">
          <mxGeometry width="50" height="50" relative="1" as="geometry">
            <mxPoint x="420" y="650" as="sourcePoint" />
            <mxPoint x="470" y="600" as="targetPoint" />
          </mxGeometry>
        </mxCell>
        <mxCell id="rfMJr3Cy8R7fDRPE-xrx-68" value="" style="endArrow=none;html=1;rounded=0;entryX=0;entryY=0.5;entryDx=0;entryDy=0;exitX=1;exitY=0.5;exitDx=0;exitDy=0;" edge="1" parent="1" source="rfMJr3Cy8R7fDRPE-xrx-43" target="rfMJr3Cy8R7fDRPE-xrx-42">
          <mxGeometry width="50" height="50" relative="1" as="geometry">
            <mxPoint x="420" y="650" as="sourcePoint" />
            <mxPoint x="470" y="600" as="targetPoint" />
          </mxGeometry>
        </mxCell>
        <mxCell id="rfMJr3Cy8R7fDRPE-xrx-69" value="" style="endArrow=none;html=1;rounded=0;entryX=1;entryY=0;entryDx=0;entryDy=0;exitX=0.25;exitY=1;exitDx=0;exitDy=0;" edge="1" parent="1" source="rfMJr3Cy8R7fDRPE-xrx-20" target="rfMJr3Cy8R7fDRPE-xrx-26">
          <mxGeometry width="50" height="50" relative="1" as="geometry">
            <mxPoint x="420" y="650" as="sourcePoint" />
            <mxPoint x="470" y="600" as="targetPoint" />
          </mxGeometry>
        </mxCell>
        <mxCell id="rfMJr3Cy8R7fDRPE-xrx-70" value="" style="endArrow=none;html=1;rounded=0;entryX=0;entryY=0;entryDx=0;entryDy=0;exitX=1;exitY=1;exitDx=0;exitDy=0;" edge="1" parent="1" source="rfMJr3Cy8R7fDRPE-xrx-32" target="rfMJr3Cy8R7fDRPE-xrx-34">
          <mxGeometry width="50" height="50" relative="1" as="geometry">
            <mxPoint x="420" y="650" as="sourcePoint" />
            <mxPoint x="470" y="600" as="targetPoint" />
          </mxGeometry>
        </mxCell>
        <mxCell id="rfMJr3Cy8R7fDRPE-xrx-71" value="" style="endArrow=none;html=1;rounded=0;entryX=0.5;entryY=0;entryDx=0;entryDy=0;exitX=0.5;exitY=1;exitDx=0;exitDy=0;" edge="1" parent="1" source="rfMJr3Cy8R7fDRPE-xrx-32" target="rfMJr3Cy8R7fDRPE-xrx-35">
          <mxGeometry width="50" height="50" relative="1" as="geometry">
            <mxPoint x="420" y="650" as="sourcePoint" />
            <mxPoint x="470" y="600" as="targetPoint" />
          </mxGeometry>
        </mxCell>
        <mxCell id="rfMJr3Cy8R7fDRPE-xrx-72" value="" style="endArrow=none;html=1;rounded=0;entryX=0.5;entryY=0;entryDx=0;entryDy=0;exitX=0.174;exitY=1.033;exitDx=0;exitDy=0;exitPerimeter=0;" edge="1" parent="1" source="rfMJr3Cy8R7fDRPE-xrx-32" target="rfMJr3Cy8R7fDRPE-xrx-36">
          <mxGeometry width="50" height="50" relative="1" as="geometry">
            <mxPoint x="420" y="650" as="sourcePoint" />
            <mxPoint x="470" y="600" as="targetPoint" />
          </mxGeometry>
        </mxCell>
        <mxCell id="rfMJr3Cy8R7fDRPE-xrx-73" value="" style="endArrow=none;html=1;rounded=0;exitX=0.5;exitY=0;exitDx=0;exitDy=0;entryX=0.5;entryY=1;entryDx=0;entryDy=0;" edge="1" parent="1" source="rfMJr3Cy8R7fDRPE-xrx-40" target="rfMJr3Cy8R7fDRPE-xrx-37">
          <mxGeometry width="50" height="50" relative="1" as="geometry">
            <mxPoint x="420" y="650" as="sourcePoint" />
            <mxPoint x="470" y="600" as="targetPoint" />
          </mxGeometry>
        </mxCell>
        <mxCell id="rfMJr3Cy8R7fDRPE-xrx-74" value="" style="endArrow=none;html=1;rounded=0;exitX=0.5;exitY=0;exitDx=0;exitDy=0;entryX=0.5;entryY=1;entryDx=0;entryDy=0;" edge="1" parent="1" source="rfMJr3Cy8R7fDRPE-xrx-41" target="rfMJr3Cy8R7fDRPE-xrx-37">
          <mxGeometry width="50" height="50" relative="1" as="geometry">
            <mxPoint x="420" y="650" as="sourcePoint" />
            <mxPoint x="470" y="600" as="targetPoint" />
          </mxGeometry>
        </mxCell>
        <mxCell id="rfMJr3Cy8R7fDRPE-xrx-75" value="" style="endArrow=none;html=1;rounded=0;exitX=1;exitY=0;exitDx=0;exitDy=0;entryX=0.25;entryY=1;entryDx=0;entryDy=0;" edge="1" parent="1" source="rfMJr3Cy8R7fDRPE-xrx-39" target="rfMJr3Cy8R7fDRPE-xrx-37">
          <mxGeometry width="50" height="50" relative="1" as="geometry">
            <mxPoint x="420" y="650" as="sourcePoint" />
            <mxPoint x="470" y="600" as="targetPoint" />
          </mxGeometry>
        </mxCell>
        <mxCell id="rfMJr3Cy8R7fDRPE-xrx-76" value="" style="endArrow=none;html=1;rounded=0;exitX=0.5;exitY=0;exitDx=0;exitDy=0;entryX=0.5;entryY=1;entryDx=0;entryDy=0;" edge="1" parent="1" source="rfMJr3Cy8R7fDRPE-xrx-44" target="rfMJr3Cy8R7fDRPE-xrx-43">
          <mxGeometry width="50" height="50" relative="1" as="geometry">
            <mxPoint x="420" y="650" as="sourcePoint" />
            <mxPoint x="470" y="600" as="targetPoint" />
          </mxGeometry>
        </mxCell>
        <mxCell id="rfMJr3Cy8R7fDRPE-xrx-77" value="" style="endArrow=none;html=1;rounded=0;exitX=0.5;exitY=0;exitDx=0;exitDy=0;entryX=0.5;entryY=1;entryDx=0;entryDy=0;" edge="1" parent="1" source="rfMJr3Cy8R7fDRPE-xrx-45" target="rfMJr3Cy8R7fDRPE-xrx-43">
          <mxGeometry width="50" height="50" relative="1" as="geometry">
            <mxPoint x="420" y="650" as="sourcePoint" />
            <mxPoint x="470" y="600" as="targetPoint" />
          </mxGeometry>
        </mxCell>
        <mxCell id="rfMJr3Cy8R7fDRPE-xrx-78" value="" style="endArrow=none;html=1;rounded=0;exitX=1;exitY=0.5;exitDx=0;exitDy=0;entryX=0;entryY=1;entryDx=0;entryDy=0;" edge="1" parent="1" source="rfMJr3Cy8R7fDRPE-xrx-46" target="rfMJr3Cy8R7fDRPE-xrx-43">
          <mxGeometry width="50" height="50" relative="1" as="geometry">
            <mxPoint x="420" y="650" as="sourcePoint" />
            <mxPoint x="470" y="600" as="targetPoint" />
          </mxGeometry>
        </mxCell>
        <mxCell id="rfMJr3Cy8R7fDRPE-xrx-79" value="" style="endArrow=none;html=1;rounded=0;exitX=1;exitY=0.5;exitDx=0;exitDy=0;entryX=0;entryY=0.5;entryDx=0;entryDy=0;" edge="1" parent="1" source="rfMJr3Cy8R7fDRPE-xrx-47" target="rfMJr3Cy8R7fDRPE-xrx-43">
          <mxGeometry width="50" height="50" relative="1" as="geometry">
            <mxPoint x="420" y="650" as="sourcePoint" />
            <mxPoint x="470" y="600" as="targetPoint" />
          </mxGeometry>
        </mxCell>
        <mxCell id="rfMJr3Cy8R7fDRPE-xrx-80" value="" style="endArrow=none;html=1;rounded=0;entryX=0.5;entryY=1;entryDx=0;entryDy=0;" edge="1" parent="1" source="rfMJr3Cy8R7fDRPE-xrx-14" target="rfMJr3Cy8R7fDRPE-xrx-15">
          <mxGeometry width="50" height="50" relative="1" as="geometry">
            <mxPoint x="420" y="250" as="sourcePoint" />
            <mxPoint x="470" y="200" as="targetPoint" />
          </mxGeometry>
        </mxCell>
        <mxCell id="rfMJr3Cy8R7fDRPE-xrx-81" value="" style="endArrow=none;html=1;rounded=0;entryX=0.5;entryY=1;entryDx=0;entryDy=0;exitX=0.5;exitY=0;exitDx=0;exitDy=0;" edge="1" parent="1" source="rfMJr3Cy8R7fDRPE-xrx-14" target="rfMJr3Cy8R7fDRPE-xrx-16">
          <mxGeometry width="50" height="50" relative="1" as="geometry">
            <mxPoint x="420" y="250" as="sourcePoint" />
            <mxPoint x="470" y="200" as="targetPoint" />
          </mxGeometry>
        </mxCell>
        <mxCell id="rfMJr3Cy8R7fDRPE-xrx-82" value="" style="endArrow=none;html=1;rounded=0;entryX=0.5;entryY=1;entryDx=0;entryDy=0;exitX=0.75;exitY=0;exitDx=0;exitDy=0;" edge="1" parent="1" source="rfMJr3Cy8R7fDRPE-xrx-14" target="rfMJr3Cy8R7fDRPE-xrx-17">
          <mxGeometry width="50" height="50" relative="1" as="geometry">
            <mxPoint x="420" y="250" as="sourcePoint" />
            <mxPoint x="470" y="200" as="targetPoint" />
          </mxGeometry>
        </mxCell>
        <mxCell id="rfMJr3Cy8R7fDRPE-xrx-83" value="" style="endArrow=none;html=1;rounded=0;entryX=0;entryY=1;entryDx=0;entryDy=0;exitX=1;exitY=0.5;exitDx=0;exitDy=0;" edge="1" parent="1" source="rfMJr3Cy8R7fDRPE-xrx-14" target="rfMJr3Cy8R7fDRPE-xrx-18">
          <mxGeometry width="50" height="50" relative="1" as="geometry">
            <mxPoint x="420" y="250" as="sourcePoint" />
            <mxPoint x="470" y="200" as="targetPoint" />
          </mxGeometry>
        </mxCell>
        <mxCell id="rfMJr3Cy8R7fDRPE-xrx-84" value="" style="endArrow=none;html=1;rounded=0;entryX=0.5;entryY=1;entryDx=0;entryDy=0;exitX=0.75;exitY=0;exitDx=0;exitDy=0;" edge="1" parent="1" source="rfMJr3Cy8R7fDRPE-xrx-8" target="rfMJr3Cy8R7fDRPE-xrx-11">
          <mxGeometry width="50" height="50" relative="1" as="geometry">
            <mxPoint x="420" y="250" as="sourcePoint" />
            <mxPoint x="470" y="200" as="targetPoint" />
          </mxGeometry>
        </mxCell>
        <mxCell id="rfMJr3Cy8R7fDRPE-xrx-85" value="" style="endArrow=none;html=1;rounded=0;entryX=0.5;entryY=1;entryDx=0;entryDy=0;exitX=0.5;exitY=0;exitDx=0;exitDy=0;" edge="1" parent="1" source="rfMJr3Cy8R7fDRPE-xrx-8" target="rfMJr3Cy8R7fDRPE-xrx-10">
          <mxGeometry width="50" height="50" relative="1" as="geometry">
            <mxPoint x="420" y="250" as="sourcePoint" />
            <mxPoint x="470" y="200" as="targetPoint" />
          </mxGeometry>
        </mxCell>
        <mxCell id="rfMJr3Cy8R7fDRPE-xrx-86" value="" style="endArrow=none;html=1;rounded=0;entryX=0.744;entryY=1.075;entryDx=0;entryDy=0;entryPerimeter=0;exitX=0.5;exitY=0;exitDx=0;exitDy=0;" edge="1" parent="1" source="rfMJr3Cy8R7fDRPE-xrx-8" target="rfMJr3Cy8R7fDRPE-xrx-9">
          <mxGeometry width="50" height="50" relative="1" as="geometry">
            <mxPoint x="420" y="250" as="sourcePoint" />
            <mxPoint x="470" y="200" as="targetPoint" />
          </mxGeometry>
        </mxCell>
        <mxCell id="rfMJr3Cy8R7fDRPE-xrx-87" value="" style="endArrow=none;html=1;rounded=0;entryX=0.5;entryY=1;entryDx=0;entryDy=0;exitX=0.25;exitY=0;exitDx=0;exitDy=0;" edge="1" parent="1" source="rfMJr3Cy8R7fDRPE-xrx-8" target="rfMJr3Cy8R7fDRPE-xrx-12">
          <mxGeometry width="50" height="50" relative="1" as="geometry">
            <mxPoint x="420" y="250" as="sourcePoint" />
            <mxPoint x="470" y="200" as="targetPoint" />
          </mxGeometry>
        </mxCell>
        <mxCell id="rfMJr3Cy8R7fDRPE-xrx-88" value="" style="endArrow=none;html=1;rounded=0;entryX=0.5;entryY=1;entryDx=0;entryDy=0;exitX=0.75;exitY=0;exitDx=0;exitDy=0;" edge="1" parent="1" source="rfMJr3Cy8R7fDRPE-xrx-1" target="rfMJr3Cy8R7fDRPE-xrx-6">
          <mxGeometry width="50" height="50" relative="1" as="geometry">
            <mxPoint x="180" y="250" as="sourcePoint" />
            <mxPoint x="230" y="200" as="targetPoint" />
          </mxGeometry>
        </mxCell>
        <mxCell id="rfMJr3Cy8R7fDRPE-xrx-90" value="" style="endArrow=none;html=1;rounded=0;exitX=0.5;exitY=1;exitDx=0;exitDy=0;entryX=0.5;entryY=0;entryDx=0;entryDy=0;" edge="1" parent="1" source="rfMJr3Cy8R7fDRPE-xrx-4" target="rfMJr3Cy8R7fDRPE-xrx-1">
          <mxGeometry width="50" height="50" relative="1" as="geometry">
            <mxPoint x="180" y="250" as="sourcePoint" />
            <mxPoint x="230" y="200" as="targetPoint" />
          </mxGeometry>
        </mxCell>
        <mxCell id="rfMJr3Cy8R7fDRPE-xrx-92" value="" style="endArrow=none;html=1;rounded=0;exitX=0.5;exitY=1;exitDx=0;exitDy=0;entryX=0.5;entryY=0;entryDx=0;entryDy=0;" edge="1" parent="1" source="rfMJr3Cy8R7fDRPE-xrx-3" target="rfMJr3Cy8R7fDRPE-xrx-1">
          <mxGeometry width="50" height="50" relative="1" as="geometry">
            <mxPoint x="180" y="250" as="sourcePoint" />
            <mxPoint x="230" y="200" as="targetPoint" />
          </mxGeometry>
        </mxCell>
        <mxCell id="rfMJr3Cy8R7fDRPE-xrx-93" value="" style="endArrow=none;html=1;rounded=0;exitX=0.5;exitY=1;exitDx=0;exitDy=0;entryX=0.25;entryY=0;entryDx=0;entryDy=0;" edge="1" parent="1" source="rfMJr3Cy8R7fDRPE-xrx-2" target="rfMJr3Cy8R7fDRPE-xrx-1">
          <mxGeometry width="50" height="50" relative="1" as="geometry">
            <mxPoint x="180" y="250" as="sourcePoint" />
            <mxPoint x="230" y="200" as="targetPoint" />
          </mxGeometry>
        </mxCell>
        <mxCell id="rfMJr3Cy8R7fDRPE-xrx-94" value="" style="endArrow=none;html=1;rounded=0;exitX=0.5;exitY=0;exitDx=0;exitDy=0;entryX=0.5;entryY=1;entryDx=0;entryDy=0;" edge="1" parent="1" source="rfMJr3Cy8R7fDRPE-xrx-5" target="rfMJr3Cy8R7fDRPE-xrx-1">
          <mxGeometry width="50" height="50" relative="1" as="geometry">
            <mxPoint x="180" y="250" as="sourcePoint" />
            <mxPoint x="230" y="200" as="targetPoint" />
          </mxGeometry>
        </mxCell>
        <mxCell id="rfMJr3Cy8R7fDRPE-xrx-95" value="N" style="text;html=1;strokeColor=none;fillColor=none;align=center;verticalAlign=middle;whiteSpace=wrap;rounded=0;" vertex="1" parent="1">
          <mxGeometry x="230" y="190" width="60" height="30" as="geometry" />
        </mxCell>
        <mxCell id="rfMJr3Cy8R7fDRPE-xrx-96" value="1" style="text;html=1;strokeColor=none;fillColor=none;align=center;verticalAlign=middle;whiteSpace=wrap;rounded=0;" vertex="1" parent="1">
          <mxGeometry x="150" y="190" width="60" height="30" as="geometry" />
        </mxCell>
        <mxCell id="rfMJr3Cy8R7fDRPE-xrx-97" value="N" style="text;html=1;strokeColor=none;fillColor=none;align=center;verticalAlign=middle;whiteSpace=wrap;rounded=0;" vertex="1" parent="1">
          <mxGeometry x="530" y="190" width="60" height="30" as="geometry" />
        </mxCell>
        <mxCell id="rfMJr3Cy8R7fDRPE-xrx-98" value="1" style="text;html=1;strokeColor=none;fillColor=none;align=center;verticalAlign=middle;whiteSpace=wrap;rounded=0;" vertex="1" parent="1">
          <mxGeometry x="460" y="190" width="60" height="30" as="geometry" />
        </mxCell>
        <mxCell id="rfMJr3Cy8R7fDRPE-xrx-99" value="N" style="text;html=1;strokeColor=none;fillColor=none;align=center;verticalAlign=middle;whiteSpace=wrap;rounded=0;" vertex="1" parent="1">
          <mxGeometry x="670" y="360" width="60" height="30" as="geometry" />
        </mxCell>
        <mxCell id="rfMJr3Cy8R7fDRPE-xrx-100" value="1" style="text;html=1;strokeColor=none;fillColor=none;align=center;verticalAlign=middle;whiteSpace=wrap;rounded=0;" vertex="1" parent="1">
          <mxGeometry x="670" y="270" width="60" height="30" as="geometry" />
        </mxCell>
        <mxCell id="rfMJr3Cy8R7fDRPE-xrx-102" value="M" style="text;html=1;strokeColor=none;fillColor=none;align=center;verticalAlign=middle;whiteSpace=wrap;rounded=0;" vertex="1" parent="1">
          <mxGeometry x="690" y="610" width="60" height="30" as="geometry" />
        </mxCell>
        <mxCell id="rfMJr3Cy8R7fDRPE-xrx-103" value="N" style="text;html=1;strokeColor=none;fillColor=none;align=center;verticalAlign=middle;whiteSpace=wrap;rounded=0;" vertex="1" parent="1">
          <mxGeometry x="690" y="535" width="60" height="30" as="geometry" />
        </mxCell>
        <mxCell id="rfMJr3Cy8R7fDRPE-xrx-104" value="1" style="text;html=1;strokeColor=none;fillColor=none;align=center;verticalAlign=middle;whiteSpace=wrap;rounded=0;" vertex="1" parent="1">
          <mxGeometry x="490" y="662.5" width="60" height="30" as="geometry" />
        </mxCell>
        <mxCell id="rfMJr3Cy8R7fDRPE-xrx-105" value="N" style="text;html=1;strokeColor=none;fillColor=none;align=center;verticalAlign=middle;whiteSpace=wrap;rounded=0;" vertex="1" parent="1">
          <mxGeometry x="570" y="665" width="60" height="30" as="geometry" />
        </mxCell>
        <mxCell id="rfMJr3Cy8R7fDRPE-xrx-106" value="N" style="text;html=1;strokeColor=none;fillColor=none;align=center;verticalAlign=middle;whiteSpace=wrap;rounded=0;" vertex="1" parent="1">
          <mxGeometry x="250" y="662.5" width="60" height="30" as="geometry" />
        </mxCell>
        <mxCell id="rfMJr3Cy8R7fDRPE-xrx-107" value="1" style="text;html=1;strokeColor=none;fillColor=none;align=center;verticalAlign=middle;whiteSpace=wrap;rounded=0;" vertex="1" parent="1">
          <mxGeometry x="310" y="662.5" width="60" height="30" as="geometry" />
        </mxCell>
        <mxCell id="rfMJr3Cy8R7fDRPE-xrx-108" value="1" style="text;html=1;strokeColor=none;fillColor=none;align=center;verticalAlign=middle;whiteSpace=wrap;rounded=0;" vertex="1" parent="1">
          <mxGeometry x="460" y="400" width="60" height="30" as="geometry" />
        </mxCell>
        <mxCell id="rfMJr3Cy8R7fDRPE-xrx-109" value="N" style="text;html=1;strokeColor=none;fillColor=none;align=center;verticalAlign=middle;whiteSpace=wrap;rounded=0;" vertex="1" parent="1">
          <mxGeometry x="515" y="400" width="60" height="30" as="geometry" />
        </mxCell>
      </root>
    </mxGraphModel>
  </diagram>
</mxfile>
